<svg xmlns="http://www.w3.org/2000/svg" width="24.83" height="22.347" viewBox="0 0 24.83 22.347"><defs><style>.a{fill:#036;}</style></defs><path class="a" d="M29.105,14.483H27.864V13.241a1.241,1.241,0,1,0-2.483,0v1.241H15.449V13.241a1.241,1.241,0,0,0-2.483,0v1.241H11.724A3.724,3.724,0,0,0,8,18.207V30.622a3.724,3.724,0,0,0,3.724,3.724H29.105a3.724,3.724,0,0,0,3.724-3.724V18.207A3.724,3.724,0,0,0,29.105,14.483ZM11.724,16.966h1.241v1.241a1.241,1.241,0,0,0,2.483,0V16.966h9.932v1.241a1.241,1.241,0,1,0,2.483,0V16.966h1.241a1.241,1.241,0,0,1,1.241,1.241V20.69H10.483V18.207A1.241,1.241,0,0,1,11.724,16.966Zm17.381,14.9H11.724a1.241,1.241,0,0,1-1.241-1.241V23.173H30.347v7.449A1.241,1.241,0,0,1,29.105,31.864Z" transform="translate(-8 -12)"/></svg>