<svg xmlns="http://www.w3.org/2000/svg" width="13.974" height="13.974" viewBox="0 0 13.974 13.974"><defs><style>.a{fill:#036;stroke:#036;}</style></defs><path class="a" d="M15.125-33.97h-.58l-.2-.2a4.7,4.7,0,0,0,1.146-3.084A4.745,4.745,0,0,0,10.745-42,4.745,4.745,0,0,0,6-37.255a4.745,4.745,0,0,0,4.745,4.745,4.716,4.716,0,0,0,3.084-1.142l.2.2v.577l3.65,3.643,1.088-1.088Zm-4.38,0A3.285,3.285,0,0,1,7.46-37.255a3.285,3.285,0,0,1,3.285-3.285,3.285,3.285,0,0,1,3.285,3.285A3.285,3.285,0,0,1,10.745-33.97Z" transform="translate(-5.5 42.5)"/></svg>