<svg xmlns="http://www.w3.org/2000/svg" width="19.202" height="19.202" viewBox="0 0 19.202 19.202"><defs><style>.a{fill:#fff;}</style></defs><path class="a" d="M13.611,10.148v2.674a.756.756,0,0,1-.7.755c-.33.023-.6.035-.809.035A12.1,12.1,0,0,1,0,1.512Q0,1.2.035.7A.756.756,0,0,1,.789,0H3.463A.378.378,0,0,1,3.84.34c.017.174.033.312.048.417A10.511,10.511,0,0,0,4.8,3.783a.345.345,0,0,1-.111.429L3.059,5.378a9.866,9.866,0,0,0,5.175,5.175L9.4,8.924a.349.349,0,0,1,.433-.113,10.511,10.511,0,0,0,3.025.911c.105.015.243.032.416.048a.378.378,0,0,1,.34.377Z" transform="translate(8.93) rotate(41)"/></svg>