<svg xmlns="http://www.w3.org/2000/svg" width="37" height="37" viewBox="0 0 37 37"><defs><style>.a{fill:#beccdc;opacity:0.1;}.b,.c{fill:none;}.c{stroke:#fff;stroke-width:3px;}</style></defs><rect class="a" width="37" height="37" rx="5"/><g transform="translate(7 7)"><path class="b" d="M0,0H23V23H0Z"/><path class="c" d="M12.454,13.5a11.443,11.443,0,0,1,9.061,3.961l-.706-.912c-1.493-1.7-5.359-3.049-8.356-3.049s-6.746,1.354-8.239,3.049l-.821.911A11.44,11.44,0,0,1,12.454,13.5Zm0-16.5a5.158,5.158,0,0,1,5.264,5.046V5.074a5.158,5.158,0,0,1-5.264,5.046A5.158,5.158,0,0,1,7.19,5.074V2.046A5.158,5.158,0,0,1,12.454-3Z" transform="translate(-0.955 3.073)"/></g></svg>