<svg xmlns="http://www.w3.org/2000/svg" width="256.011" height="58.354" viewBox="0 0 256.011 58.354"><defs><style>.a{fill:#f03;}.b{fill:#036;fill-rule:evenodd;}</style></defs><path class="a" d="M29.179,58.354h-.015A29.181,29.181,0,0,1,17.842,2.292,29.01,29.01,0,0,1,29.206,0h.02A29.18,29.18,0,0,1,40.516,56.063a29,29,0,0,1-11.337,2.291Zm.023-18.84h0a10,10,0,0,0,3.73,1.971,17.006,17.006,0,0,0,5.02.754h.107a11.3,11.3,0,0,0,7.106-2.279,7.764,7.764,0,0,0,2.916-4.988,6.564,6.564,0,0,0-.09-2.287,6.184,6.184,0,0,0-.9-2.114,7.446,7.446,0,0,0-4.307-2.934h.03a7.624,7.624,0,0,0,2-1.11,5.459,5.459,0,0,0,1.294-1.435,4.713,4.713,0,0,0,.609-3.365,6.292,6.292,0,0,0-2.586-3.878,9.73,9.73,0,0,0-5.784-1.711,15.3,15.3,0,0,0-4.22.634,23.046,23.046,0,0,0-4.89,2.1A11.786,11.786,0,0,0,23.877,16.4a15.324,15.324,0,0,0-3.034-.3,15.739,15.739,0,0,0-4.622.675,9.92,9.92,0,0,0-3.881,2.139L13.7,20.257a7.8,7.8,0,0,1,3-1.822,11.432,11.432,0,0,1,3.773-.642,8.27,8.27,0,0,1,3.935.885,4.308,4.308,0,0,1,2.361,2.911l.068,12.629A7.022,7.022,0,0,1,24.816,39a5.7,5.7,0,0,1-3.943,1.552,5.914,5.914,0,0,1-2.167-.408,5.685,5.685,0,0,1-1.887-1.207,6.356,6.356,0,0,1-1.834-4.713V28.677h8.886V27.009H10.312v5.454a10.205,10.205,0,0,0,.919,4.352,8.633,8.633,0,0,0,2.406,3.051,11.7,11.7,0,0,0,7.373,2.379A13.215,13.215,0,0,0,29.2,39.514Zm7.979,1.167a5.312,5.312,0,0,1-3.848-1.559A5.635,5.635,0,0,1,32.087,37.1a8.553,8.553,0,0,1-.472-2.923h0v-5.5l6.971.045a4.692,4.692,0,0,1,3.755,1.712,6.032,6.032,0,0,1,1.237,3.8,6.352,6.352,0,0,1-6.4,6.449Zm1.192-13.688h0a3.883,3.883,0,0,1-.532-.025H31.578l.03-7.369a13.255,13.255,0,0,1,5.984-1.766,5.182,5.182,0,0,1,3.8,1.43,4.668,4.668,0,0,1,1.31,3.148,4.6,4.6,0,0,1-1.229,3.344,4.2,4.2,0,0,1-3.106,1.232Z" transform="translate(0.003 0)"/><g transform="translate(78.094 17.812)"><path class="b" d="M291.153,342.432h0a6.623,6.623,0,0,0,4.91,2.548,4.875,4.875,0,0,0,1.069-.113,2.631,2.631,0,0,0,.855-.357,1.9,1.9,0,0,0,.567-.634,2,2,0,0,0,.207-.934,1.393,1.393,0,0,0-.167-.712,1.925,1.925,0,0,0-.449-.545,3.257,3.257,0,0,0-.62-.407,4.412,4.412,0,0,0-.684-.3c-.423-.167-.849-.334-1.269-.477s-.834-.3-1.262-.474c-.238-.082-.53-.188-.862-.317a9.579,9.579,0,0,1-1.069-.48,8.46,8.46,0,0,1-1.069-.667,5.037,5.037,0,0,1-.955-.934,4.676,4.676,0,0,1-.692-1.237,4.385,4.385,0,0,1-.263-1.589,3.519,3.519,0,0,1,.542-1.956,4.63,4.63,0,0,1,1.447-1.426,6.959,6.959,0,0,1,2.042-.852,9.5,9.5,0,0,1,2.351-.285,12.6,12.6,0,0,1,3.5.448,8.021,8.021,0,0,1,2.883,1.5l-1.834,2.823c-.32-.317-.63-.6-.94-.859a5.909,5.909,0,0,0-.969-.652,4.931,4.931,0,0,0-1.119-.414,6.426,6.426,0,0,0-1.382-.135,3.69,3.69,0,0,0-1.119.153,2.361,2.361,0,0,0-.77.417,1.644,1.644,0,0,0-.439.605,1.821,1.821,0,0,0-.142.712,1.275,1.275,0,0,0,.2.712,2.059,2.059,0,0,0,.524.53,3.476,3.476,0,0,0,.712.389c.27.11.542.21.82.3.435.167.877.313,1.315.464s.877.3,1.31.457c.217.085.482.178.8.3a7.425,7.425,0,0,1,.959.435,6.252,6.252,0,0,1,.987.648,4.447,4.447,0,0,1,.88.909,4.631,4.631,0,0,1,.624,1.247,4.895,4.895,0,0,1,.245,1.639,3.7,3.7,0,0,1-.577,2.056,4.9,4.9,0,0,1-1.511,1.489,7.363,7.363,0,0,1-2.137.912,9.738,9.738,0,0,1-2.454.307,18.008,18.008,0,0,1-2.109-.122,9.835,9.835,0,0,1-1.886-.42,7.741,7.741,0,0,1-1.7-.8,7.618,7.618,0,0,1-1.522-1.269Zm-15.467-11.879h0v11.491a3.039,3.039,0,0,0,.2,1.15,2.135,2.135,0,0,0,.52.784,1.908,1.908,0,0,0,.77.442,3.058,3.058,0,0,0,.952.135,10.326,10.326,0,0,0,2.376-.285,7.432,7.432,0,0,0,2.219-.89V330.553h4.055V344.4a9.794,9.794,0,0,0,.1,1.159c.057.5.153,1.09.275,1.764h-3.835c-.022-.063-.057-.178-.1-.357s-.1-.357-.147-.552-.088-.382-.132-.555a3.471,3.471,0,0,1-.075-.392,7.746,7.746,0,0,1-1.187.862,8.9,8.9,0,0,1-1.382.684,8.61,8.61,0,0,1-1.454.442,6.534,6.534,0,0,1-1.4.157,7.343,7.343,0,0,1-2.783-.448,4.489,4.489,0,0,1-1.782-1.25,4.633,4.633,0,0,1-.952-1.861,9.138,9.138,0,0,1-.275-2.3v-11.2Zm-18.413,14.117h0a9.625,9.625,0,0,0,1.517.382,10.824,10.824,0,0,0,1.781.15,3.59,3.59,0,0,0,1.746-.439,4.015,4.015,0,0,0,1.36-1.265,6.413,6.413,0,0,0,.9-2.021,10.506,10.506,0,0,0,.317-2.694,9.967,9.967,0,0,0-.235-2.231,4.851,4.851,0,0,0-.73-1.717,3.381,3.381,0,0,0-1.262-1.1,4.092,4.092,0,0,0-1.846-.388,8,8,0,0,0-1,.068c-.333.05-.655.113-.969.192a7.2,7.2,0,0,0-.877.27,4.13,4.13,0,0,0-.712.357ZM253.24,323h4.033v8.821a7.132,7.132,0,0,1,2.1-1.094,8.142,8.142,0,0,1,2.689-.427,7.033,7.033,0,0,1,3.256.712,6.265,6.265,0,0,1,2.194,1.884,7.871,7.871,0,0,1,1.25,2.719,12.906,12.906,0,0,1,.4,3.206,9.822,9.822,0,0,1-.712,3.92,8.145,8.145,0,0,1-1.884,2.754,7.64,7.64,0,0,1-2.633,1.624,8.907,8.907,0,0,1-2.974.527q-1.167,0-2.137-.025c-.652-.018-1.282-.04-1.884-.068s-1.209-.075-1.8-.135-1.219-.132-1.871-.22Zm-10.88,21.963h0a2.851,2.851,0,0,0,1.782-.564,4.238,4.238,0,0,0,1.222-1.476,7.484,7.484,0,0,0,.712-2.066,11.368,11.368,0,0,0,.235-2.334,10.358,10.358,0,0,0-.207-2.091,5.149,5.149,0,0,0-.7-1.721,3.518,3.518,0,0,0-1.24-1.167,3.668,3.668,0,0,0-1.852-.438,3.336,3.336,0,0,0-1.727.448,3.8,3.8,0,0,0-1.25,1.237,6.09,6.09,0,0,0-.752,1.864,10.122,10.122,0,0,0-.032,4.418,6.77,6.77,0,0,0,.712,1.927,4.325,4.325,0,0,0,1.257,1.425,3.1,3.1,0,0,0,1.834.534Zm.135,2.793h0a9.656,9.656,0,0,1-3.623-.637,7.169,7.169,0,0,1-2.644-1.807,7.766,7.766,0,0,1-1.624-2.834,11.5,11.5,0,0,1-.56-3.685,10.382,10.382,0,0,1,.51-3.263,7.643,7.643,0,0,1,1.554-2.7,7.408,7.408,0,0,1,2.619-1.852,9.309,9.309,0,0,1,3.706-.68,9.02,9.02,0,0,1,3.668.68,6.937,6.937,0,0,1,2.533,1.874,7.646,7.646,0,0,1,1.467,2.793,12.218,12.218,0,0,1,.474,3.44,10.158,10.158,0,0,1-.552,3.366,8.293,8.293,0,0,1-1.6,2.758,7.658,7.658,0,0,1-2.544,1.861,8.08,8.08,0,0,1-3.378.684Zm-16.1-24.757h4.033v20.28a1.819,1.819,0,0,0,.257,1.119.85.85,0,0,0,.712.333,2.333,2.333,0,0,0,.869-.142c.238-.088.517-.2.824-.323l.684,2.077a6.721,6.721,0,0,1-.849.5,7.693,7.693,0,0,1-.959.414,8.516,8.516,0,0,1-1.044.288,5.433,5.433,0,0,1-1.069.11,5.905,5.905,0,0,1-1.289-.142,2.551,2.551,0,0,1-1.1-.538,2.729,2.729,0,0,1-.78-1.09,4.729,4.729,0,0,1-.288-1.8Zm-2.641,22.7c-.564.3-1.14.577-1.736.834a13.827,13.827,0,0,1-1.967.667,17.683,17.683,0,0,1-2.391.435,25.836,25.836,0,0,1-3,.157,10.437,10.437,0,0,1-3.324-.5,9.182,9.182,0,0,1-4.668-3.456,11.785,11.785,0,0,1-1.4-2.608,15.5,15.5,0,0,1-.834-2.958,18.176,18.176,0,0,1-.27-3.139,16.386,16.386,0,0,1,.333-3.278,14.506,14.506,0,0,1,.959-3.021,12.152,12.152,0,0,1,1.586-2.6,10.148,10.148,0,0,1,2.184-2.042,9.957,9.957,0,0,1,2.758-1.334,10.775,10.775,0,0,1,3.306-.485c.589,0,1.129.018,1.617.05a11.872,11.872,0,0,1,1.36.167,7.352,7.352,0,0,1,1.2.317,8.461,8.461,0,0,1,1.15.5,10.126,10.126,0,0,1,1.2.73q.62.424,1.369,1l-2.252,3.1a15.635,15.635,0,0,0-1.5-1.229,7.042,7.042,0,0,0-1.369-.777,6.158,6.158,0,0,0-1.4-.407,10.117,10.117,0,0,0-1.607-.113,5.4,5.4,0,0,0-2.736.689,6.11,6.11,0,0,0-2.009,1.9,8.962,8.962,0,0,0-1.232,2.826,13.788,13.788,0,0,0-.42,3.488,18.305,18.305,0,0,0,.357,3.73,10.224,10.224,0,0,0,1.154,3.139,6.374,6.374,0,0,0,2.042,2.167,5.452,5.452,0,0,0,3,.805,8.089,8.089,0,0,0,1.034-.047c.367-.047.734-.075,1.109-.132s.74-.125,1.1-.2.687-.157,1-.238V335.6h4.275Z" transform="translate(-204.163 -322.363)"/><path class="b" d="M566.294,338.249h0l5.48-6.2h5.048l-7.628,7.483,8.123,9.285h-4.835L566.3,341.57v7.251h-4.04V324.479h4.04Zm-21.969-3.321h0c0-.333,0-.759-.028-1.285a9.848,9.848,0,0,0-.167-1.589h3.8a2.634,2.634,0,0,1,.092.3c.028.128.06.27.1.417s.068.31.1.467.047.31.068.445a6.61,6.61,0,0,1,.9-.684,7.67,7.67,0,0,1,2.513-1.047,6.912,6.912,0,0,1,1.529-.167,7.193,7.193,0,0,1,2.426.4,5.68,5.68,0,0,1,1.956,1.167,5.482,5.482,0,0,1,1.315,1.867,6.22,6.22,0,0,1,.482,2.5v11.1h-4.05V338.493a6.292,6.292,0,0,0-.2-1.707,2.815,2.815,0,0,0-.6-1.129,2.247,2.247,0,0,0-.969-.62,4.159,4.159,0,0,0-1.322-.2,6.308,6.308,0,0,0-.934.075,6.966,6.966,0,0,0-1.015.207,10.086,10.086,0,0,0-1.022.333,6.539,6.539,0,0,0-.94.417v12.966h-4.036Zm-8.313,5.142h0a13.767,13.767,0,0,0-2.958.385,5.318,5.318,0,0,0-1.834.815,2.692,2.692,0,0,0-.944,1.179,4.073,4.073,0,0,0-.26,1.482,3.465,3.465,0,0,0,.153,1.137,1.781,1.781,0,0,0,.442.73,1.622,1.622,0,0,0,.712.392,3.128,3.128,0,0,0,.884.117c.292,0,.589-.018.89-.043a5.837,5.837,0,0,0,.944-.182,6.056,6.056,0,0,0,.972-.357,6.326,6.326,0,0,0,1-.589Zm-9.82-5.734h0a9.463,9.463,0,0,1,3.139-1.871,10.888,10.888,0,0,1,3.82-.677,10.691,10.691,0,0,1,2.594.313,7.074,7.074,0,0,1,2.206.94,4.835,4.835,0,0,1,1.536,1.639,4.7,4.7,0,0,1,.574,2.369v7.483a5.424,5.424,0,0,0,.063.912,1.368,1.368,0,0,0,.207.57.822.822,0,0,0,.382.3,1.707,1.707,0,0,0,.577.082,4.071,4.071,0,0,0,.467-.047q.357-.05.652-.107l.435,1.782c-.248.153-.5.3-.762.435a5.451,5.451,0,0,1-.834.357,6.474,6.474,0,0,1-.959.245,7.044,7.044,0,0,1-1.147.1,3.4,3.4,0,0,1-1.946-.542,2.375,2.375,0,0,1-1-1.529,7.266,7.266,0,0,1-1.35,1,7.537,7.537,0,0,1-1.4.638,7.829,7.829,0,0,1-1.425.334,11.441,11.441,0,0,1-1.372.1,6.73,6.73,0,0,1-2.034-.3,4.124,4.124,0,0,1-1.539-.88,3.847,3.847,0,0,1-.98-1.425,5.477,5.477,0,0,1-.357-2.017,5.93,5.93,0,0,1,.4-2.256,5.036,5.036,0,0,1,1.094-1.667,5.954,5.954,0,0,1,1.667-1.154,9.822,9.822,0,0,1,2.106-.712,17.106,17.106,0,0,1,2.413-.373q1.272-.107,2.591-.107v-.605a3.9,3.9,0,0,0-.228-1.426,2.613,2.613,0,0,0-.645-.965,2.75,2.75,0,0,0-.987-.548,4.3,4.3,0,0,0-1.272-.178,5.576,5.576,0,0,0-1.119.1,4.294,4.294,0,0,0-1.069.357,6.735,6.735,0,0,0-1.109.683,13.955,13.955,0,0,0-1.279,1.1Zm-14.43-6.709h0v7.219h2.266a8.981,8.981,0,0,0,2.088-.217,4.631,4.631,0,0,0,1.6-.667,3.145,3.145,0,0,0,1.015-1.15,3.562,3.562,0,0,0,.357-1.635,4.3,4.3,0,0,0-.263-1.57,2.4,2.4,0,0,0-.89-1.1,4.5,4.5,0,0,0-1.654-.652,12.733,12.733,0,0,0-2.551-.217Zm0,10.357h0v7.709h3.275a6.787,6.787,0,0,0,2.216-.323,4.707,4.707,0,0,0,1.554-.865,3.4,3.4,0,0,0,.905-1.2,3.248,3.248,0,0,0,.3-1.334,4.078,4.078,0,0,0-.3-1.539,3.28,3.28,0,0,0-.915-1.265,4.633,4.633,0,0,0-1.592-.855,7.6,7.6,0,0,0-2.334-.317Zm3.5-13.5a12.437,12.437,0,0,1,3.321.413,7.593,7.593,0,0,1,2.5,1.187,5.415,5.415,0,0,1,1.6,1.909,5.835,5.835,0,0,1,.555,2.594,4.5,4.5,0,0,1-.357,1.782,5.952,5.952,0,0,1-.984,1.6,6.536,6.536,0,0,1-1.46,1.254,6.342,6.342,0,0,1-1.781.787,8.336,8.336,0,0,1,1.952.62,6.6,6.6,0,0,1,1.834,1.229,6.166,6.166,0,0,1,1.369,1.884,5.838,5.838,0,0,1,.535,2.583,5.723,5.723,0,0,1-.542,2.416,6.064,6.064,0,0,1-1.617,2.077,7.967,7.967,0,0,1-2.654,1.454,11.1,11.1,0,0,1-3.668.548H507.48V324.471Z" transform="translate(-399.401 -323.739)"/></g></svg>