<svg xmlns="http://www.w3.org/2000/svg" width="207.651" height="40.89" viewBox="0 0 207.651 40.89"><defs><style>.a{fill:#036;font-size:24px;font-family:Inter-Bold, Inter;font-weight:700;}.b{fill:#eb2232;}.b,.c{fill-rule:evenodd;}.c{fill:#fff;}</style></defs><g transform="translate(3.47 2.43)"><text class="a" transform="translate(44.181 26.515)"><tspan x="0" y="0">OmniChannel</tspan></text><g transform="translate(17678.529 4696.57)"><path class="b" d="M36.987,281.66A20.445,20.445,0,1,1,16.51,302.1,20.445,20.445,0,0,1,36.987,281.66" transform="translate(-17698.51 -4980.66)"/><path class="c" d="M58.668,336.878h0v-3.851l4.885.032c2.352.016,3.5,1.9,3.5,3.861,0,5.434-8.37,6.6-8.378-.042m0-10.213h0c9.012-4.729,9.807,5.66,4.365,5.164H58.652Zm7.853,5.638c6.46-2.474,1.061-12.107-9.513-6.148a8.243,8.243,0,0,0-3.758-1.727c-2.612-.53-6.116-.069-8.081,1.766l.949.931a7.086,7.086,0,0,1,7.505-1.106,3.044,3.044,0,0,1,1.655,2.039l.048,8.85h0c-.387,6.148-8.306,5.673-8.3,0v-3.883h6.227v-1.172H43.75v3.822c.024,7.264,8.861,8.487,13.237,4.951a9.749,9.749,0,0,0,6.206,1.91c7.845-.053,9.46-8.513,3.312-10.234Z" transform="translate(-17718.395 -5011.858)"/></g></g></svg>